<svg width="800" height="600" xmlns="http://www.w3.org/2000/svg">
  <!-- Humanoid Model Example Diagram -->
  <rect width="100%" height="100%" fill="#f8f9fa"/>
  <text x="50%" y="40" font-family="Arial" font-size="16" text-anchor="middle" fill="#333">Humanoid Robot Model</text>

  <!-- Torso (Body) -->
  <rect x="350" y="150" width="100" height="150" fill="#4e73df" stroke="#2e59d9" stroke-width="2" rx="10"/>
  <text x="400" y="230" font-family="Arial" font-size="12" text-anchor="middle" fill="white">Torso</text>

  <!-- Head -->
  <circle cx="400" cy="120" r="30" fill="#4e73df" stroke="#2e59d9" stroke-width="2"/>
  <text x="400" y="125" font-family="Arial" font-size="12" text-anchor="middle" fill="white">Head</text>

  <!-- Left Arm -->
  <line x1="450" y1="170" x2="550" y2="200" stroke="#36b9cc" stroke-width="8" stroke-linecap="round"/>
  <line x1="550" y1="200" x2="620" y2="230" stroke="#36b9cc" stroke-width="6" stroke-linecap="round"/>
  <circle cx="550" cy="200" r="5" fill="#f6c23e" stroke="#e7a800" stroke-width="1"/>
  <text x="585" y="190" font-family="Arial" font-size="10" text-anchor="middle" fill="#666">Left Arm</text>

  <!-- Right Arm -->
  <line x1="350" y1="170" x2="250" y2="200" stroke="#36b9cc" stroke-width="8" stroke-linecap="round"/>
  <line x1="250" y1="200" x2="180" y2="230" stroke="#36b9cc" stroke-width="6" stroke-linecap="round"/>
  <circle cx="250" cy="200" r="5" fill="#f6c23e" stroke="#e7a800" stroke-width="1"/>
  <text x="215" y="190" font-family="Arial" font-size="10" text-anchor="middle" fill="#666">Right Arm</text>

  <!-- Left Leg -->
  <line x1="380" y1="300" x2="370" y2="450" stroke="#36b9cc" stroke-width="10" stroke-linecap="round"/>
  <line x1="370" y1="450" x2="360" y2="550" stroke="#36b9cc" stroke-width="8" stroke-linecap="round"/>
  <circle cx="370" cy="450" r="5" fill="#f6c23e" stroke="#e7a800" stroke-width="1"/>
  <text x="390" y="400" font-family="Arial" font-size="10" text-anchor="middle" fill="#666">Left Leg</text>

  <!-- Right Leg -->
  <line x1="420" y1="300" x2="430" y2="450" stroke="#36b9cc" stroke-width="10" stroke-linecap="round"/>
  <line x1="430" y1="450" x2="440" y2="550" stroke="#36b9cc" stroke-width="8" stroke-linecap="round"/>
  <circle cx="430" cy="450" r="5" fill="#f6c23e" stroke="#e7a800" stroke-width="1"/>
  <text x="410" y="400" font-family="Arial" font-size="10" text-anchor="middle" fill="#666">Right Leg</text>

  <!-- Joint markers -->
  <circle cx="400" cy="150" r="6" fill="#f6c23e" stroke="#e7a800" stroke-width="2"/> <!-- Neck -->
  <circle cx="450" cy="170" r="6" fill="#f6c23e" stroke="#e7a800" stroke-width="2"/> <!-- Left Shoulder -->
  <circle cx="350" cy="170" r="6" fill="#f6c23e" stroke="#e7a800" stroke-width="2"/> <!-- Right Shoulder -->
  <circle cx="380" cy="300" r="6" fill="#f6c23e" stroke="#e7a800" stroke-width="2"/> <!-- Left Hip -->
  <circle cx="420" cy="300" r="6" fill="#f6c23e" stroke="#e7a800" stroke-width="2"/> <!-- Right Hip -->

  <!-- Joint labels -->
  <text x="400" y="140" font-family="Arial" font-size="9" text-anchor="middle" fill="#333">Neck</text>
  <text x="470" y="160" font-family="Arial" font-size="9" text-anchor="middle" fill="#333">L.Shoulder</text>
  <text x="330" y="160" font-family="Arial" font-size="9" text-anchor="middle" fill="#333">R.Shoulder</text>
  <text x="360" y="290" font-family="Arial" font-size="9" text-anchor="middle" fill="#333">L.Hip</text>
  <text x="440" y="290" font-family="Arial" font-size="9" text-anchor="middle" fill="#333">R.Hip</text>

  <!-- Legend -->
  <rect x="650" y="80" width="130" height="100" fill="white" stroke="#ccc" stroke-width="1" rx="5"/>
  <text x="715" y="100" font-family="Arial" font-size="12" text-anchor="middle" fill="#333" font-weight="bold">Legend</text>
  <line x1="660" y1="120" x2="680" y2="120" stroke="#4e73df" stroke-width="8" stroke-linecap="round"/>
  <text x="690" y="124" font-family="Arial" font-size="10" fill="#333">Links</text>
  <line x1="660" y1="140" x2="680" y2="140" stroke="#f6c23e" stroke-width="4" stroke-linecap="round"/>
  <text x="690" y="144" font-family="Arial" font-size="10" fill="#333">Joints</text>
  <circle cx="670" cy="160" r="4" fill="#f6c23e" stroke="#e7a800" stroke-width="1"/>
  <text x="690" y="164" font-family="Arial" font-size="10" fill="#333">Joint Axis</text>
</svg>